<svg width="260" height="64" viewBox="0 0 260 64" fill="none" xmlns="http://www.w3.org/2000/svg">
<path d="M0.123575 46V1.2H18.5556C22.5236 1.2 25.9156 1.84 28.7316 3.12C31.5902 4.4 33.7876 6.23466 35.3236 8.624C36.8596 11.0133 37.6276 13.8507 37.6276 17.136C37.6276 20.4213 36.8596 23.2587 35.3236 25.648C33.7876 28.0373 31.5902 29.872 28.7316 31.152C25.9156 32.432 22.5236 33.072 18.5556 33.072H4.73158L8.44357 29.168V46H0.123575ZM8.44357 30.064L4.73158 26.032H18.1716C21.8409 26.032 24.5929 25.264 26.4276 23.728C28.3049 22.1493 29.2436 19.952 29.2436 17.136C29.2436 14.2773 28.3049 12.08 26.4276 10.544C24.5929 9.008 21.8409 8.24 18.1716 8.24H4.73158L8.44357 4.144V30.064ZM59.8271 46.448C56.0297 46.448 52.7017 45.7013 49.8431 44.208C47.0271 42.672 44.8297 40.5813 43.2511 37.936C41.7151 35.2907 40.9471 32.2827 40.9471 28.912C40.9471 25.4987 41.6937 22.4907 43.1871 19.888C44.7231 17.2427 46.8137 15.1733 49.4591 13.68C52.1471 12.1867 55.1977 11.44 58.6111 11.44C61.9391 11.44 64.9044 12.1653 67.5071 13.616C70.1097 15.0667 72.1577 17.1147 73.6511 19.76C75.1444 22.4053 75.8911 25.52 75.8911 29.104C75.8911 29.4453 75.8697 29.8293 75.8271 30.256C75.8271 30.6827 75.8057 31.088 75.7631 31.472H47.2831V26.16H71.5391L68.4031 27.824C68.4457 25.8613 68.0404 24.1333 67.1871 22.64C66.3337 21.1467 65.1604 19.9733 63.6671 19.12C62.2164 18.2667 60.5311 17.84 58.6111 17.84C56.6484 17.84 54.9204 18.2667 53.4271 19.12C51.9764 19.9733 50.8244 21.168 49.9711 22.704C49.1604 24.1973 48.7551 25.968 48.7551 28.016V29.296C48.7551 31.344 49.2244 33.1573 50.1631 34.736C51.1017 36.3147 52.4244 37.5307 54.1311 38.384C55.8377 39.2373 57.8004 39.664 60.0191 39.664C61.9391 39.664 63.6671 39.3653 65.2031 38.768C66.7391 38.1707 68.1044 37.232 69.2991 35.952L73.5871 40.88C72.0511 42.672 70.1097 44.0587 67.7631 45.04C65.4591 45.9787 62.8137 46.448 59.8271 46.448ZM98.3596 46.448C94.5622 46.448 91.2342 45.7013 88.3756 44.208C85.5596 42.672 83.3622 40.5813 81.7836 37.936C80.2476 35.2907 79.4796 32.2827 79.4796 28.912C79.4796 25.4987 80.2262 22.4907 81.7196 19.888C83.2556 17.2427 85.3462 15.1733 87.9916 13.68C90.6796 12.1867 93.7302 11.44 97.1436 11.44C100.472 11.44 103.437 12.1653 106.04 13.616C108.642 15.0667 110.69 17.1147 112.184 19.76C113.677 22.4053 114.424 25.52 114.424 29.104C114.424 29.4453 114.402 29.8293 114.36 30.256C114.36 30.6827 114.338 31.088 114.296 31.472H85.8156V26.16H110.072L106.936 27.824C106.978 25.8613 106.573 24.1333 105.72 22.64C104.866 21.1467 103.693 19.9733 102.2 19.12C100.749 18.2667 99.0636 17.84 97.1436 17.84C95.1809 17.84 93.4529 18.2667 91.9596 19.12C90.5089 19.9733 89.3569 21.168 88.5036 22.704C87.6929 24.1973 87.2876 25.968 87.2876 28.016V29.296C87.2876 31.344 87.7569 33.1573 88.6956 34.736C89.6342 36.3147 90.9569 37.5307 92.6636 38.384C94.3702 39.2373 96.3329 39.664 98.5516 39.664C100.472 39.664 102.2 39.3653 103.736 38.768C105.272 38.1707 106.637 37.232 107.832 35.952L112.12 40.88C110.584 42.672 108.642 44.0587 106.296 45.04C103.992 45.9787 101.346 46.448 98.3596 46.448ZM120.828 46V11.824H128.444V21.232L127.548 18.48C128.572 16.176 130.172 14.4267 132.348 13.232C134.567 12.0373 137.319 11.44 140.604 11.44V19.056C140.263 18.9707 139.943 18.928 139.644 18.928C139.345 18.8853 139.047 18.864 138.748 18.864C135.719 18.864 133.308 19.76 131.516 21.552C129.724 23.3013 128.828 25.9253 128.828 29.424V46H120.828Z" fill="#0F172A"/>
<path d="M144.35 46V44.095C144.943 44.095 145.789 44.0315 146.89 43.9045C147.991 43.7775 149.007 43.5023 149.938 43.079V3.8995C149.007 3.60316 148.012 3.455 146.954 3.455C145.938 3.455 145.133 3.47617 144.541 3.5185L144.35 1.6135C147.144 1.27483 149.938 0.957332 152.732 0.660997C155.526 0.364665 158.257 0.216499 160.924 0.216499C163.506 0.216499 165.834 0.639832 167.909 1.4865C170.025 2.29083 171.824 3.3915 173.306 4.7885C174.83 6.1855 175.994 7.75183 176.799 9.4875C177.603 11.2232 178.005 13.0012 178.005 14.8215C178.005 17.2768 177.264 19.6263 175.783 21.87C174.343 24.0713 172.248 25.8493 169.496 27.204C166.744 28.5163 163.379 29.109 159.4 28.982L159.082 26.95C163.569 26.6537 166.85 25.4895 168.925 23.4575C171.041 21.4255 172.1 18.9913 172.1 16.155C172.1 13.996 171.634 12.0698 170.703 10.3765C169.771 8.64083 168.522 7.22266 166.956 6.122C165.39 4.979 163.612 4.19583 161.622 3.7725C159.632 3.30683 157.579 3.24333 155.463 3.582V43.079C156.521 43.5023 157.643 43.7775 158.828 43.9045C160.013 44.0315 160.945 44.095 161.622 44.095V46H144.35ZM181.554 46V44.095C182.019 44.095 182.697 44.0315 183.586 43.9045C184.475 43.7775 185.3 43.5023 186.062 43.079V21.5525C185.512 21.3408 184.856 21.235 184.094 21.235C183.374 21.1927 182.718 21.2138 182.125 21.2985L181.554 19.6475L189.936 16.155L191.206 17.044V23.14C192.222 21.5737 193.343 20.1343 194.571 18.822C195.799 17.5097 197.175 16.7688 198.699 16.5995C200.604 16.3878 202.17 16.663 203.398 17.425L200.604 23.2035C200.265 22.8648 199.799 22.5473 199.207 22.251C198.614 21.9547 197.937 21.8065 197.175 21.8065C195.651 21.8065 194.444 22.3357 193.555 23.394C192.666 24.41 191.883 25.5318 191.206 26.7595V43.079C192.179 43.5023 193.195 43.7775 194.254 43.9045C195.312 44.0315 196.137 44.095 196.73 44.095V46H181.554ZM203.426 32.3475C203.426 29.2572 204.04 26.5267 205.267 24.156C206.495 21.743 208.125 19.8592 210.157 18.5045C212.231 17.1498 214.517 16.4937 217.015 16.536C219.132 16.536 220.994 17.0652 222.603 18.1235C224.212 19.1818 225.418 20.6212 226.222 22.4415C227.069 24.2195 227.365 26.188 227.111 28.347L208.061 29.363V29.5535C208.061 31.7548 208.506 33.808 209.395 35.713C210.284 37.5757 211.512 39.0785 213.078 40.2215C214.644 41.3222 216.422 41.8725 218.412 41.8725C219.851 41.8725 221.164 41.5973 222.349 41.047C223.534 40.4543 224.529 39.7982 225.333 39.0785L226.667 40.2215C226.032 41.1528 225.143 42.1053 224 43.079C222.899 44.0527 221.629 44.8782 220.19 45.5555C218.751 46.1905 217.205 46.508 215.554 46.508C213.184 46.508 211.088 45.8518 209.268 44.5395C207.448 43.2272 206.008 41.4915 204.95 39.3325C203.934 37.1735 203.426 34.8452 203.426 32.3475ZM215.491 19.838C213.671 19.838 212.125 20.5153 210.855 21.87C209.628 23.2247 208.802 24.8757 208.379 26.823L221.46 25.807C221.46 24.1983 220.867 22.8013 219.682 21.616C218.497 20.4307 217.1 19.838 215.491 19.838ZM242.522 46.508C241.972 46.508 241.421 46.4868 240.871 46.4445C240.321 46.4022 239.77 46.3387 239.22 46.254V60.605C240.194 61.0283 241.21 61.3035 242.268 61.4305C243.326 61.5575 244.152 61.621 244.745 61.621V63.526H229.06V61.621C229.61 61.621 230.372 61.5575 231.346 61.4305C232.32 61.3035 233.23 61.0283 234.077 60.605V21.5525C233.526 21.3408 232.87 21.235 232.108 21.235C231.388 21.1927 230.732 21.2138 230.14 21.2985L229.568 19.6475L237.95 16.155L239.22 17.044V21.5525C240.744 20.0285 242.353 18.822 244.046 17.933C245.739 17.0017 247.39 16.536 248.999 16.536C251.031 16.536 252.83 17.1498 254.397 18.3775C255.963 19.6052 257.169 21.2138 258.016 23.2035C258.905 25.1508 259.35 27.2252 259.35 29.4265C259.35 32.6015 258.63 35.4802 257.191 38.0625C255.751 40.6448 253.762 42.698 251.222 44.222C248.682 45.746 245.782 46.508 242.522 46.508ZM239.22 40.793C240.702 42.4863 242.691 43.333 245.189 43.333C247.136 43.333 248.809 42.8462 250.206 41.8725C251.603 40.8988 252.682 39.5865 253.444 37.9355C254.206 36.2845 254.587 34.4218 254.587 32.3475C254.587 30.3578 254.227 28.4952 253.508 26.7595C252.83 25.0238 251.857 23.6268 250.587 22.5685C249.359 21.4678 247.92 20.9175 246.269 20.9175C245.041 20.9175 243.813 21.235 242.586 21.87C241.358 22.505 240.236 23.2882 239.22 24.2195V40.793Z" fill="#183B65"/>
</svg>