<svg width="163" height="41" viewBox="0 0 163 41" fill="none" xmlns="http://www.w3.org/2000/svg">
<path d="M0.0951595 29V0.999998H11.6152C14.0952 0.999998 16.2152 1.4 17.9752 2.2C19.7618 3 21.1352 4.14666 22.0952 5.64C23.0552 7.13333 23.5352 8.90667 23.5352 10.96C23.5352 13.0133 23.0552 14.7867 22.0952 16.28C21.1352 17.7733 19.7618 18.92 17.9752 19.72C16.2152 20.52 14.0952 20.92 11.6152 20.92H2.97516L5.29516 18.48V29H0.0951595ZM5.29516 19.04L2.97516 16.52H11.3752C13.6685 16.52 15.3885 16.04 16.5352 15.08C17.7085 14.0933 18.2952 12.72 18.2952 10.96C18.2952 9.17333 17.7085 7.8 16.5352 6.84C15.3885 5.88 13.6685 5.4 11.3752 5.4H2.97516L5.29516 2.84V19.04ZM37.4098 29.28C35.0365 29.28 32.9565 28.8133 31.1698 27.88C29.4098 26.92 28.0365 25.6133 27.0498 23.96C26.0898 22.3067 25.6098 20.4267 25.6098 18.32C25.6098 16.1867 26.0765 14.3067 27.0098 12.68C27.9698 11.0267 29.2765 9.73333 30.9298 8.8C32.6098 7.86667 34.5165 7.4 36.6498 7.4C38.7298 7.4 40.5832 7.85333 42.2098 8.76C43.8365 9.66667 45.1165 10.9467 46.0498 12.6C46.9832 14.2533 47.4498 16.2 47.4498 18.44C47.4498 18.6533 47.4365 18.8933 47.4098 19.16C47.4098 19.4267 47.3965 19.68 47.3698 19.92H29.5698V16.6H44.7298L42.7698 17.64C42.7965 16.4133 42.5432 15.3333 42.0098 14.4C41.4765 13.4667 40.7432 12.7333 39.8098 12.2C38.9032 11.6667 37.8498 11.4 36.6498 11.4C35.4232 11.4 34.3432 11.6667 33.4098 12.2C32.5032 12.7333 31.7832 13.48 31.2498 14.44C30.7432 15.3733 30.4898 16.48 30.4898 17.76V18.56C30.4898 19.84 30.7832 20.9733 31.3698 21.96C31.9565 22.9467 32.7832 23.7067 33.8498 24.24C34.9165 24.7733 36.1432 25.04 37.5298 25.04C38.7298 25.04 39.8098 24.8533 40.7698 24.48C41.7298 24.1067 42.5832 23.52 43.3298 22.72L46.0098 25.8C45.0498 26.92 43.8365 27.7867 42.3698 28.4C40.9298 28.9867 39.2765 29.28 37.4098 29.28ZM61.4927 29.28C59.1193 29.28 57.0393 28.8133 55.2527 27.88C53.4927 26.92 52.1193 25.6133 51.1327 23.96C50.1727 22.3067 49.6927 20.4267 49.6927 18.32C49.6927 16.1867 50.1593 14.3067 51.0927 12.68C52.0527 11.0267 53.3593 9.73333 55.0127 8.8C56.6927 7.86667 58.5993 7.4 60.7327 7.4C62.8127 7.4 64.666 7.85333 66.2927 8.76C67.9193 9.66667 69.1993 10.9467 70.1327 12.6C71.066 14.2533 71.5327 16.2 71.5327 18.44C71.5327 18.6533 71.5193 18.8933 71.4927 19.16C71.4927 19.4267 71.4793 19.68 71.4527 19.92H53.6527V16.6H68.8127L66.8527 17.64C66.8793 16.4133 66.626 15.3333 66.0927 14.4C65.5593 13.4667 64.826 12.7333 63.8927 12.2C62.986 11.6667 61.9327 11.4 60.7327 11.4C59.506 11.4 58.426 11.6667 57.4927 12.2C56.586 12.7333 55.866 13.48 55.3327 14.44C54.826 15.3733 54.5727 16.48 54.5727 17.76V18.56C54.5727 19.84 54.866 20.9733 55.4527 21.96C56.0393 22.9467 56.866 23.7067 57.9327 24.24C58.9993 24.7733 60.226 25.04 61.6127 25.04C62.8127 25.04 63.8927 24.8533 64.8527 24.48C65.8127 24.1067 66.666 23.52 67.4127 22.72L70.0927 25.8C69.1327 26.92 67.9193 27.7867 66.4527 28.4C65.0127 28.9867 63.3593 29.28 61.4927 29.28ZM75.5355 29V7.64H80.2955V13.52L79.7355 11.8C80.3755 10.36 81.3755 9.26667 82.7355 8.52C84.1221 7.77333 85.8421 7.4 87.8955 7.4V12.16C87.6821 12.1067 87.4821 12.08 87.2955 12.08C87.1088 12.0533 86.9221 12.04 86.7355 12.04C84.8421 12.04 83.3355 12.6 82.2155 13.72C81.0955 14.8133 80.5355 16.4533 80.5355 18.64V29H75.5355Z" fill="#EEEEEE"/>
<path d="M90.2523 29V27.8C90.6257 27.8 91.159 27.76 91.8523 27.68C92.5457 27.6 93.1857 27.4267 93.7724 27.16V2.48C93.1857 2.29333 92.559 2.2 91.8924 2.2C91.2523 2.2 90.7457 2.21333 90.3723 2.24L90.2523 1.04C92.0123 0.826665 93.7724 0.626666 95.5324 0.439998C97.2924 0.253332 99.0124 0.159999 100.692 0.159999C102.319 0.159999 103.786 0.426666 105.092 0.959999C106.426 1.46667 107.559 2.16 108.492 3.04C109.452 3.92 110.186 4.90666 110.692 6C111.199 7.09333 111.452 8.21333 111.452 9.36C111.452 10.9067 110.986 12.3867 110.052 13.8C109.146 15.1867 107.826 16.3067 106.092 17.16C104.359 17.9867 102.239 18.36 99.7323 18.28L99.5324 17C102.359 16.8133 104.426 16.08 105.732 14.8C107.066 13.52 107.732 11.9867 107.732 10.2C107.732 8.84 107.439 7.62667 106.852 6.56C106.266 5.46666 105.479 4.57333 104.492 3.88C103.506 3.16 102.386 2.66667 101.132 2.4C99.879 2.10666 98.5857 2.06666 97.2524 2.28V27.16C97.919 27.4267 98.6257 27.6 99.3724 27.68C100.119 27.76 100.706 27.8 101.132 27.8V29H90.2523ZM113.688 29V27.8C113.981 27.8 114.408 27.76 114.968 27.68C115.528 27.6 116.048 27.4267 116.528 27.16V13.6C116.181 13.4667 115.768 13.4 115.288 13.4C114.834 13.3733 114.421 13.3867 114.048 13.44L113.688 12.4L118.968 10.2L119.768 10.76V14.6C120.408 13.6133 121.114 12.7067 121.888 11.88C122.661 11.0533 123.528 10.5867 124.488 10.48C125.688 10.3467 126.674 10.52 127.448 11L125.688 14.64C125.474 14.4267 125.181 14.2267 124.808 14.04C124.434 13.8533 124.008 13.76 123.528 13.76C122.568 13.76 121.808 14.0933 121.248 14.76C120.688 15.4 120.194 16.1067 119.768 16.88V27.16C120.381 27.4267 121.021 27.6 121.688 27.68C122.354 27.76 122.874 27.8 123.248 27.8V29H113.688ZM127.465 20.4C127.465 18.4533 127.852 16.7333 128.625 15.24C129.399 13.72 130.425 12.5333 131.705 11.68C133.012 10.8267 134.452 10.4133 136.025 10.44C137.359 10.44 138.532 10.7733 139.545 11.44C140.559 12.1067 141.319 13.0133 141.825 14.16C142.359 15.28 142.545 16.52 142.385 17.88L130.385 18.52V18.64C130.385 20.0267 130.665 21.32 131.225 22.52C131.785 23.6933 132.559 24.64 133.545 25.36C134.532 26.0533 135.652 26.4 136.905 26.4C137.812 26.4 138.639 26.2267 139.385 25.88C140.132 25.5067 140.759 25.0933 141.265 24.64L142.105 25.36C141.705 25.9467 141.145 26.5467 140.425 27.16C139.732 27.7733 138.932 28.2933 138.025 28.72C137.119 29.12 136.145 29.32 135.105 29.32C133.612 29.32 132.292 28.9067 131.145 28.08C129.999 27.2533 129.092 26.16 128.425 24.8C127.785 23.44 127.465 21.9733 127.465 20.4ZM135.065 12.52C133.919 12.52 132.945 12.9467 132.145 13.8C131.372 14.6533 130.852 15.6933 130.585 16.92L138.825 16.28C138.825 15.2667 138.452 14.3867 137.705 13.64C136.959 12.8933 136.079 12.52 135.065 12.52ZM152.093 29.32C151.746 29.32 151.4 29.3067 151.053 29.28C150.706 29.2533 150.36 29.2133 150.013 29.16V38.2C150.626 38.4667 151.266 38.64 151.933 38.72C152.6 38.8 153.12 38.84 153.493 38.84V40.04H143.613V38.84C143.96 38.84 144.44 38.8 145.053 38.72C145.666 38.64 146.24 38.4667 146.773 38.2V13.6C146.426 13.4667 146.013 13.4 145.533 13.4C145.08 13.3733 144.666 13.3867 144.293 13.44L143.933 12.4L149.213 10.2L150.013 10.76V13.6C150.973 12.64 151.986 11.88 153.053 11.32C154.12 10.7333 155.16 10.44 156.173 10.44C157.453 10.44 158.586 10.8267 159.573 11.6C160.56 12.3733 161.32 13.3867 161.853 14.64C162.413 15.8667 162.693 17.1733 162.693 18.56C162.693 20.56 162.24 22.3733 161.333 24C160.426 25.6267 159.173 26.92 157.573 27.88C155.973 28.84 154.146 29.32 152.093 29.32ZM150.013 25.72C150.946 26.7867 152.2 27.32 153.773 27.32C155 27.32 156.053 27.0133 156.933 26.4C157.813 25.7867 158.493 24.96 158.973 23.92C159.453 22.88 159.693 21.7067 159.693 20.4C159.693 19.1467 159.466 17.9733 159.013 16.88C158.586 15.7867 157.973 14.9067 157.173 14.24C156.4 13.5467 155.493 13.2 154.453 13.2C153.68 13.2 152.906 13.4 152.133 13.8C151.36 14.2 150.653 14.6933 150.013 15.28V25.72Z" fill="#B4D0F9"/>
</svg>